<svg id="_레이어_1" data-name="레이어 1" xmlns="http://www.w3.org/2000/svg" viewBox="0 0 1127.47 206.35" width="100px" height="50px">
  <path class="cls-1" d="m309.83,129.73c.98,2.38,1.14,5.37.49,8.98-1.81,9.78-5.14,18.34-10,25.66-4.86,7.32-11.2,13.03-19.02,17.13-7.82,4.1-16.86,6.15-27.14,6.15s-19.32-2.47-26.48-7.42c-7.16-4.95-12.17-12.02-15.04-21.23-2.87-9.21-3.21-19.96-1.02-32.26,1.91-10.82,5.52-20.43,10.82-28.82,5.3-8.39,12.05-14.93,20.25-19.63,8.2-4.7,17.4-7.05,27.62-7.05,7.6,0,14.15,1.05,19.68,3.16,5.52,2.1,10.06,5.32,13.61,9.63,1.69,1.86,2.98,3.7,3.85,5.53.87,1.83,1.31,3.81,1.31,5.94,0,3.5-1,6.37-2.99,8.61-2,2.24-4.63,3.36-7.91,3.36-1.59,0-3.16-.39-4.72-1.19-1.56-.79-2.97-2.01-4.22-3.65l-.33-.41c-1.69-2.73-4.11-4.84-7.25-6.31-3.14-1.48-7.23-2.21-12.26-2.21-5.79,0-11.02,1.46-15.7,4.39-4.67,2.93-8.58,7.07-11.72,12.42-3.15,5.36-5.34,11.67-6.6,18.94s-1.35,13.58-.29,18.94c1.07,5.36,3.32,9.5,6.77,12.42s8.06,4.39,13.85,4.39c5.08,0,9.7-.83,13.85-2.5,4.16-1.67,7.65-4.05,10.5-7.13,2.84-3.09,4.86-6.76,6.06-11.03h-18.28c-2.46,0-4.66-.42-6.6-1.27-1.94-.85-3.39-2.18-4.34-4.02-.96-1.83-1.19-4.14-.7-6.93.54-3.06,1.85-5.4,3.89-7.01,2.05-1.61,4.77-2.42,8.15-2.42h30.83c2.46,0,4.67.55,6.64,1.64,1.97,1.09,3.44,2.83,4.43,5.21Zm103.29-34.02c2.41,8.06,2.57,17.91.49,29.55l-8.85,49.93c-.65,3.88-1.9,6.9-3.73,9.06-1.83,2.16-4.58,3.24-8.24,3.24-4.15,0-7.13-1.28-8.93-3.85-1.8-2.57-2.27-6.28-1.39-11.15l3.65-20.58h-41.37l-4.17,23.28c-.66,3.93-1.91,6.97-3.77,9.1-1.86,2.13-4.68,3.2-8.45,3.2-3.99,0-6.87-1.31-8.65-3.93-1.77-2.62-2.23-6.31-1.35-11.07l8.69-49.85c1.91-11.04,5.03-20.37,9.35-28,4.32-7.62,9.85-13.43,16.6-17.42,6.75-3.99,14.72-5.98,23.9-5.98s17.05,2.06,23.29,6.19c6.23,4.13,10.54,10.22,12.95,18.28Zm-23.23,34.88l1.18-6.64c1.81-10.17,1.55-17.75-.78-22.75-2.33-5-7.2-7.5-14.63-7.5-5.03,0-9.25,1.18-12.67,3.52-3.42,2.35-6.23,5.93-8.45,10.74-2.21,4.81-3.97,11.04-5.28,18.69l-.7,3.93h41.33Zm125.21-50.54c-3.22-2.7-7.23-4.85-12.01-6.43s-10.12-2.38-16.03-2.38c-10.38,0-19.69,2.41-27.91,7.21-8.23,4.81-15.02,11.49-20.37,20.04-5.36,8.55-9.02,18.41-10.99,29.55-2.08,11.81-1.57,22.2,1.52,31.2,3.09,8.99,8.36,15.97,15.82,20.95,7.46,4.97,16.44,7.46,26.93,7.46,9.4,0,17.47-1.65,24.19-4.96,6.72-3.31,12.3-7.86,16.72-13.65,1.2-1.69,2.24-3.47,3.11-5.33.87-1.86,1.39-3.52,1.56-5,.33-2.19.08-4.18-.74-5.98s-2.04-3.21-3.65-4.22c-1.61-1.01-3.38-1.52-5.29-1.52s-3.73.45-5.29,1.35c-1.56.9-3.02,2.28-4.39,4.14l-.49.49c-2.73,4.1-6.06,7.17-10,9.22s-8.8,3.07-14.59,3.07-10.64-1.48-14.39-4.43c-3.74-2.95-6.23-7.13-7.46-12.54-1.23-5.41-1.24-11.69-.04-18.85,1.26-7.16,3.47-13.45,6.64-18.86,3.17-5.41,7.15-9.59,11.93-12.54,4.78-2.95,10.07-4.43,15.86-4.43,5.41,0,9.74.89,12.99,2.66,3.25,1.78,5.56,4.58,6.93,8.4.87,2.41,2.09,4.21,3.65,5.41,1.56,1.2,3.45,1.8,5.7,1.8,3.17,0,5.71-1.05,7.63-3.16,1.91-2.1,2.87-5.01,2.87-8.73,0-3.39-1.01-7.1-3.03-11.15-1.7-3.17-4.16-6.11-7.38-8.81Zm107.48-8.65c-3.66,0-6.39,1.06-8.2,3.2-1.8,2.13-3.06,5.17-3.77,9.1l-6.22,34.92h-44l5.71-32.22c.87-4.86.41-8.58-1.4-11.15-1.8-2.57-4.78-3.85-8.93-3.85-3.66,0-6.42,1.08-8.28,3.24-1.86,2.16-3.15,5.18-3.85,9.06l-15.66,88.79c-.82,4.86-.34,8.58,1.44,11.15,1.77,2.57,4.63,3.85,8.57,3.85s6.73-1.06,8.57-3.2c1.83-2.13,3.1-5.17,3.81-9.1l6.18-34.84h43.98l-5.73,32.14c-.88,4.81-.41,8.51,1.39,11.11,1.8,2.59,4.7,3.89,8.69,3.89s6.65-1.06,8.48-3.2c1.83-2.13,3.1-5.17,3.81-9.1l15.74-88.78c.87-4.86.41-8.58-1.39-11.15-1.81-2.57-4.78-3.85-8.94-3.85Zm110.1,24.31c2.41,8.06,2.57,17.91.49,29.55l-8.85,49.93c-.66,3.88-1.9,6.9-3.73,9.06-1.83,2.16-4.58,3.24-8.24,3.24-4.16,0-7.13-1.28-8.93-3.85-1.81-2.57-2.27-6.28-1.4-11.15l3.65-20.58h-41.37l-4.17,23.28c-.66,3.93-1.91,6.97-3.77,9.1s-4.67,3.2-8.44,3.2c-3.99,0-6.87-1.31-8.65-3.93s-2.23-6.31-1.35-11.07l8.69-49.85c1.91-11.04,5.03-20.37,9.35-28,4.32-7.62,9.85-13.43,16.6-17.42,6.75-3.99,14.71-5.98,23.9-5.98s17.05,2.06,23.28,6.19c6.23,4.13,10.55,10.22,12.95,18.28Zm-23.23,34.88l1.18-6.64c1.8-10.17,1.54-17.75-.78-22.75-2.32-5-7.2-7.5-14.63-7.5-5.03,0-9.25,1.18-12.67,3.52-3.41,2.35-6.23,5.93-8.44,10.74-2.21,4.81-3.97,11.04-5.29,18.69l-.7,3.93h41.34Zm122.76-45.5c.76-4.15.04-7.23-2.17-9.22-2.21-1.99-5.28-2.99-9.22-2.99h-62.96c-3.55,0-6.44.82-8.65,2.46s-3.59,3.99-4.14,7.05c-.71,4.15.08,7.21,2.38,9.18,2.29,1.97,5.38,2.95,9.26,2.95h18.77l-13.85,77.96c-.82,4.81-.34,8.51,1.43,11.11,1.78,2.59,4.66,3.89,8.65,3.89,3.77,0,6.58-1.06,8.44-3.2s3.12-5.17,3.77-9.1l14.27-80.67h21.64c3.49,0,6.3-.81,8.4-2.42,2.1-1.61,3.43-3.95,3.97-7.01Zm94.61,14.35c2.95,9.02,3.39,19.48,1.31,31.4-1.97,11.2-5.53,21.08-10.7,29.64-5.16,8.55-11.8,15.22-19.92,20-8.12,4.78-17.37,7.17-27.75,7.17s-19.54-2.46-26.81-7.38c-7.27-4.92-12.38-11.89-15.33-20.91-2.95-9.02-3.36-19.46-1.23-31.32,1.97-11.26,5.52-21.16,10.66-29.72,5.14-8.55,11.75-15.21,19.84-19.96,8.09-4.76,17.35-7.13,27.79-7.13s19.53,2.45,26.8,7.34c7.27,4.89,12.38,11.85,15.33,20.86Zm-21.89,10.99c-1.09-5.36-3.44-9.48-7.05-12.38-3.61-2.9-8.42-4.35-14.43-4.35s-11.22,1.45-15.78,4.35c-4.56,2.9-8.35,7.02-11.36,12.38s-5.14,11.7-6.39,19.02c-1.26,7.27-1.34,13.58-.24,18.94,1.09,5.36,3.41,9.5,6.97,12.42,3.55,2.92,8.31,4.39,14.27,4.39s11.23-1.46,15.82-4.39c4.59-2.92,8.4-7.06,11.43-12.42,3.03-5.35,5.18-11.67,6.44-18.94,1.31-7.32,1.42-13.66.33-19.02Zm120.8-19.55c2.93,6.2,3.54,14.03,1.85,23.49-2.29,12.95-7.56,22.23-15.78,27.83-3.05,2.07-6.48,3.76-10.29,5.07l12.46,19.98c1.37,2.02,2.34,3.91,2.91,5.66.57,1.75.72,3.5.45,5.25-.44,2.73-1.71,4.97-3.81,6.72-2.11,1.75-4.72,2.62-7.83,2.62-2.08,0-4-.63-5.78-1.89s-3.37-3.03-4.8-5.33l-17.28-29.68h-14.93l-4.36,24.59c-.66,3.99-1.9,7.04-3.73,9.14s-4.63,3.16-8.4,3.16c-4.05,0-6.93-1.28-8.65-3.85s-2.17-6.28-1.35-11.15l15.5-87.39c.66-3.93,1.9-6.95,3.73-9.06,1.81-2.09,4.56-3.13,8.24-3.15h0s24.19,0,24.19,0c9.23,0,17.09,1.45,23.57,4.35,6.48,2.9,11.18,7.45,14.1,13.65Zm-24.02,8.03c-2.87-2.92-7.53-4.39-13.98-4.39h-14.88l-6.09,34.35h14.9c6.45,0,11.61-1.45,15.5-4.35,3.88-2.9,6.31-7.16,7.3-12.79,1.04-5.63.12-9.91-2.75-12.83Zm124.81-21.64c-.87-1.78-2.15-3.2-3.81-4.26-1.67-1.07-3.51-1.6-5.54-1.6-2.19,0-4.3.66-6.35,1.97s-4.03,3.17-5.94,5.57l-29.42,35.79-15.67-33.66c-1.64-3.39-3.33-5.85-5.08-7.38-1.75-1.53-3.88-2.3-6.4-2.3-2.68,0-4.99.81-6.93,2.42-1.94,1.61-3.1,3.59-3.49,5.94-.33,1.59-.27,3.37.16,5.37s1.12,4,2.05,6.02l21.76,45.1-6.42,36.22c-.82,4.81-.34,8.51,1.43,11.11,1.78,2.59,4.64,3.89,8.57,3.89s6.65-1.06,8.48-3.2c1.83-2.13,3.1-5.17,3.81-9.1l6.77-38.48,38.15-44.73c2.67-3.12,4.24-6.09,4.67-8.94.33-2.08.05-4-.82-5.78Z"/>
  <path class="cls-1" d="m174.67,0h0c3.93,15.56,16.08,27.71,31.64,31.64h0s0,0,0,0c-15.56,3.93-27.71,16.08-31.64,31.64h0s0,0,0,0c-3.93-15.56-16.08-27.71-31.64-31.64h0s0,0,0,0C158.59,27.71,170.73,15.56,174.67,0h0ZM49.49,104.96c-.56-.6-1.22-1.02-1.98-1.27-.73-.38-1.52-.56-2.37-.53-.54.07-1.09.15-1.63.22-1.04.29-1.95.82-2.71,1.58-.32.41-.64.83-.96,1.24-.56.96-.84,1.99-.84,3.1v2.73c-.03.85.15,1.64.53,2.37.25.76.67,1.42,1.27,1.98.56.6,1.22,1.02,1.98,1.27.73.39,1.52.56,2.37.53.55-.07,1.09-.15,1.64-.22,1.04-.29,1.95-.82,2.71-1.58.32-.41.64-.83.96-1.24.56-.96.84-1.99.84-3.1v-2.73c.03-.85-.14-1.64-.53-2.37-.25-.76-.67-1.42-1.27-1.98Zm28.01-3.07c-.56-.6-1.22-1.02-1.98-1.27-.73-.38-1.52-.56-2.37-.53-.54.07-1.09.15-1.63.22-1.04.29-1.95.82-2.71,1.58-.32.41-.64.83-.96,1.24-.56.96-.84,1.99-.84,3.1v2.73c-.03.85.15,1.64.53,2.37.25.76.67,1.42,1.27,1.98.56.6,1.22,1.02,1.98,1.27.73.39,1.52.56,2.37.53.55-.07,1.09-.15,1.64-.22,1.04-.29,1.95-.82,2.71-1.58.32-.41.64-.83.96-1.24.56-.96.84-1.99.84-3.1v-2.73c.03-.85-.14-1.64-.53-2.37-.25-.76-.67-1.42-1.27-1.98Zm88.39,21.51c0,45.81-37.14,82.95-82.95,82.95S0,169.21,0,123.4,37.14,40.45,82.95,40.45s82.95,37.14,82.95,82.95Zm-37.24-38.66c0-3.28-1.31-6.23-3.4-8.44-.41-.41-.86-.78-1.31-1.15-11.03-9.39-25.33-15.08-40.99-15.08-34.96,0-63.33,28.37-63.33,63.33,0,15.41,5.49,29.51,14.67,40.5.04.04.08.12.12.16.49.66,1.07,1.27,1.6,1.89,2.17,2.05,5.12,3.32,8.32,3.32,1.68,0,3.24-.33,4.71-.94.12-.08.25-.12.37-.2.74-.41,1.48-.86,2.21-1.35,30.7-18.36,56.53-44.23,74.81-75.01.29-.41.53-.86.78-1.27.04-.08.08-.16.12-.25.82-1.64,1.31-3.53,1.31-5.49Z"/>
</svg>